<svg width="60" height="60" viewBox="0 0 60 60" fill="none" xmlns="http://www.w3.org/2000/svg">
<path d="M30 0C13.4332 0 0 13.4311 0 30C0 46.5689 13.4319 60 30 60C46.5694 60 60 46.5689 60 30C60 13.4311 46.5694 0 30 0ZM30 8.97035C35.4819 8.97035 39.924 13.414 39.924 18.8935C39.924 24.3743 35.4819 28.8166 30 28.8166C24.5208 28.8166 20.0786 24.3743 20.0786 18.8935C20.0786 13.414 24.5208 8.97035 30 8.97035ZM29.9934 52.1564C24.526 52.1564 19.5186 50.1652 15.6562 46.8693C14.7154 46.0668 14.1724 44.89 14.1724 43.6552C14.1724 38.098 18.6699 33.6503 24.2282 33.6503H35.7744C41.334 33.6503 45.8144 38.098 45.8144 43.6552C45.8144 44.8913 45.2741 46.0655 44.3319 46.868C40.4709 50.1652 35.4621 52.1564 29.9934 52.1564Z" fill="#03045E"/>
</svg>
