<svg width="30" height="30" viewBox="0 0 30 30" fill="none" xmlns="http://www.w3.org/2000/svg">
<path d="M0.9375 0C0.452109 0 0.0585938 0.393516 0.0585938 0.878906V4.216C0.319629 4.18072 0.609785 4.16016 0.9375 4.16016C1.26521 4.16016 1.55537 4.18072 1.81641 4.216V0.878906C1.81641 0.393516 1.42289 0 0.9375 0Z" fill="#03045E"/>
<path d="M29.0625 0C28.5771 0 28.1836 0.393516 28.1836 0.878906V4.216C28.4446 4.18066 28.7348 4.16016 29.0625 4.16016C29.3902 4.16016 29.6804 4.18072 29.9414 4.216V0.878906C29.9414 0.393516 29.5479 0 29.0625 0Z" fill="#03045E"/>
<path d="M29.0625 5.91797C28.0985 5.91797 27.6634 6.13559 27.1126 6.41109C26.4765 6.72926 25.7555 7.08984 24.3763 7.08984C22.997 7.08984 22.2758 6.72926 21.6396 6.41109C21.0886 6.13559 20.6534 5.91797 19.689 5.91797C18.7242 5.91797 18.2887 6.13564 17.7374 6.41115C17.101 6.72932 16.3796 7.08984 15 7.08984C13.6204 7.08984 12.899 6.72932 12.2626 6.41115C11.7113 6.13564 11.2758 5.91797 10.311 5.91797C9.34658 5.91797 8.91135 6.13559 8.36033 6.41109C7.72412 6.72926 7.00301 7.08984 5.62365 7.08984C4.24459 7.08984 3.52354 6.72926 2.88744 6.41109C2.3366 6.13559 1.90148 5.91797 0.9375 5.91797C0.583828 5.91797 0.301699 5.9475 0.0585938 5.99818V29.1211C0.0585938 29.6065 0.452109 30 0.9375 30H29.0625C29.5479 30 29.9414 29.6065 29.9414 29.1211V5.99818C29.6983 5.9475 29.4162 5.91797 29.0625 5.91797ZM16.7223 23.4605C17.0655 23.1173 17.622 23.1173 17.9653 23.4605C18.3085 23.8037 18.3085 24.3602 17.9653 24.7035L15.6215 27.0472C15.4499 27.2188 15.2249 27.3047 15 27.3047C14.7751 27.3047 14.5501 27.2188 14.3786 27.0472L12.0348 24.7035C11.6916 24.3603 11.6916 23.8038 12.0348 23.4605C12.378 23.1173 12.9345 23.1173 13.2778 23.4605L14.1211 24.3039V12.7273L13.2777 13.5707C12.9345 13.9139 12.378 13.9139 12.0347 13.5707C11.6915 13.2275 11.6915 12.671 12.0347 12.3278L14.3785 9.98402C14.7217 9.64084 15.2782 9.64084 15.6214 9.98402L17.9652 12.3278C18.3084 12.671 18.3084 13.2275 17.9652 13.5707C17.7936 13.7423 17.5687 13.8281 17.3438 13.8281C17.1188 13.8281 16.8939 13.7423 16.7223 13.5707L15.8789 12.7273V24.3039L16.7223 23.4605Z" fill="#03045E"/>
</svg>
