<svg width="60" height="60" viewBox="0 0 60 60" fill="none" xmlns="http://www.w3.org/2000/svg">
<g clip-path="url(#clip0)">
<path d="M30 15C21.7157 15 15 21.7157 15 30C15 38.2842 21.7157 45 30 45C38.2843 45 45 38.2842 45 30C44.9906 21.7196 38.2804 15.0093 30 15ZM30 43C22.8203 43 17 37.1797 17 30C17 22.8203 22.8203 17 30 17C37.1797 17 43 22.8203 43 30C42.9917 37.1762 37.1763 42.9917 30 43Z" fill="#03045E"/>
<path d="M49.3169 23.468C50.0068 23.0705 50.5104 22.415 50.7167 21.646C50.923 20.8769 50.8152 20.0574 50.4169 19.368L49.4169 17.625C48.5834 16.1951 46.7519 15.7064 45.3169 16.531L44.0579 17.261C42.7594 15.8269 41.2505 14.5986 39.5829 13.618L38.2109 2.61797C38.0118 1.12258 36.7385 0.004284 35.2299 -3.05176e-05H24.7699C23.2583 0.00431984 21.9833 1.12703 21.7879 2.62597L20.4159 13.626C15.8238 16.3141 12.566 20.8012 11.4319 26H9.99988C8.34302 26 6.99988 27.3431 6.99988 29V31C6.99988 32.6568 8.34302 34 9.99988 34H11.4319C12.565 39.2002 15.8229 43.6889 20.4159 46.378L21.7879 57.378C21.9852 58.8753 23.2596 59.9959 24.7699 60H35.2299C36.7415 59.9956 38.0164 58.8729 38.2119 57.374L39.5839 46.374C41.2515 45.3934 42.7604 44.165 44.0589 42.731L45.3229 43.464C46.7579 44.2852 48.5867 43.7938 49.4169 42.364L50.4169 40.627C50.8156 39.9381 50.9242 39.1191 50.7188 38.3501C50.5135 37.5811 50.0109 36.9253 49.3219 36.527L48.0819 35.811C48.2741 35.2158 48.4363 34.6114 48.5679 34H49.9999C51.6567 34 52.9999 32.6568 52.9999 31V29C52.9999 27.3431 51.6567 26 49.9999 26H48.5679C48.4358 25.3862 48.273 24.7794 48.0799 24.182L49.3169 23.468ZM46.3169 18.268C46.7936 17.9908 47.4047 18.1519 47.6829 18.628L48.6829 20.371C48.817 20.6013 48.8531 20.8758 48.7829 21.133C48.7158 21.3872 48.5488 21.6036 48.3199 21.733L47.3509 22.292C46.8039 21.0713 46.1295 19.9119 45.3389 18.833L46.3169 18.268ZM23.7709 2.87897C23.8374 2.37708 24.2646 2.00158 24.7709 1.99997H35.2299C35.7348 2.00037 36.1619 2.37362 36.2299 2.87397L37.4299 12.516C32.6821 10.4946 27.3157 10.4946 22.5679 12.516L23.7709 2.87897ZM9.99988 32C9.44759 32 8.99988 31.5523 8.99988 31V29C8.99988 28.4477 9.44759 28 9.99988 28H11.1069C10.9642 29.3295 10.9642 30.6705 11.1069 32H9.99988ZM36.2289 57.121C36.1623 57.6229 35.7352 57.9984 35.2289 58H24.7699C24.2649 57.9996 23.8379 57.6263 23.7699 57.126L22.5699 47.484C27.3177 49.5053 32.6841 49.5053 37.4319 47.484L36.2289 57.121ZM29.9999 47C20.611 47 12.9999 39.3888 12.9999 30C12.9999 20.6111 20.611 13 29.9999 13C39.3887 13 46.9999 20.6111 46.9999 30C46.9894 39.3845 39.3844 46.9895 29.9999 47ZM48.3229 38.268C48.5509 38.3977 48.7168 38.6141 48.7829 38.868C48.8532 39.1261 48.8172 39.4016 48.6829 39.633L47.6829 41.37C47.4068 41.847 46.7967 42.0107 46.3189 41.736L45.3369 41.167C46.1275 40.088 46.8019 38.9286 47.3489 37.708L48.3229 38.268ZM49.9999 28C50.5522 28 50.9999 28.4477 50.9999 29V31C50.9999 31.5523 50.5522 32 49.9999 32H48.8929C49.0356 30.6705 49.0356 29.3295 48.8929 28H49.9999Z" fill="#03045E"/>
<path d="M33.9997 53.9999H25.9997C25.4474 53.9999 24.9997 54.4476 24.9997 54.9999C24.9997 55.5522 25.4474 55.9999 25.9997 55.9999H33.9997C34.552 55.9999 34.9997 55.5522 34.9997 54.9999C34.9997 54.4476 34.552 53.9999 33.9997 53.9999Z" fill="#03045E"/>
<path d="M24.9997 50.9999C24.9997 51.5521 25.4474 51.9999 25.9997 51.9999H33.9997C34.552 51.9999 34.9997 51.5521 34.9997 50.9999C34.9997 50.4476 34.552 49.9999 33.9997 49.9999H25.9997C25.4474 49.9999 24.9997 50.4476 24.9997 50.9999Z" fill="#03045E"/>
<path d="M34.9997 8.99987C34.9997 8.44758 34.552 7.99987 33.9997 7.99987H25.9997C25.4474 7.99987 24.9997 8.44758 24.9997 8.99987C24.9997 9.55215 25.4474 9.99987 25.9997 9.99987H33.9997C34.552 9.99987 34.9997 9.55215 34.9997 8.99987Z" fill="#03045E"/>
<path d="M25.9997 6.00005H33.9997C34.552 6.00005 34.9997 5.55233 34.9997 5.00005C34.9997 4.44776 34.552 4.00005 33.9997 4.00005H25.9997C25.4474 4.00005 24.9997 4.44776 24.9997 5.00005C24.9997 5.55233 25.4474 6.00005 25.9997 6.00005Z" fill="#03045E"/>
<path d="M29.9997 29.9999C30.552 29.9999 30.9997 29.5522 30.9997 28.9999V25.9999C30.9997 25.4476 30.552 24.9999 29.9997 24.9999C29.4475 24.9999 28.9998 25.4476 28.9998 25.9999V28.9999C28.9998 29.5522 29.4475 29.9999 29.9997 29.9999Z" fill="#03045E"/>
<path d="M29.9997 35C30.552 35 30.9997 34.5523 30.9997 34V32C30.9997 31.4477 30.552 31 29.9997 31C29.4475 31 28.9998 31.4477 28.9998 32V34C28.9998 34.5523 29.4475 35 29.9997 35Z" fill="#03045E"/>
<path d="M31.9998 24.9999H33.9998C34.5521 24.9999 34.9998 24.5522 34.9998 23.9999C34.9998 23.4476 34.5521 22.9999 33.9998 22.9999H31.9998C31.4475 22.9999 30.9998 23.4476 30.9998 23.9999C30.9998 24.5522 31.4475 24.9999 31.9998 24.9999Z" fill="#03045E"/>
<path d="M35.9999 24.9999C35.4476 24.9999 34.9999 25.4476 34.9999 25.9999V28.9999C34.9999 29.5522 35.4476 29.9999 35.9999 29.9999C36.5521 29.9999 36.9999 29.5522 36.9999 28.9999V25.9999C36.9999 25.4476 36.5521 24.9999 35.9999 24.9999Z" fill="#03045E"/>
<path d="M35.9999 31C35.4476 31 34.9999 31.4477 34.9999 32V34C34.9999 34.5523 35.4476 35 35.9999 35C36.5521 35 36.9999 34.5523 36.9999 34V32C36.9999 31.4477 36.5521 31 35.9999 31Z" fill="#03045E"/>
<path d="M33.9998 34.9999H31.9998C31.4475 34.9999 30.9998 35.4476 30.9998 35.9999C30.9998 36.5521 31.4475 36.9999 31.9998 36.9999H33.9998C34.5521 36.9999 34.9998 36.5521 34.9998 35.9999C34.9998 35.4476 34.5521 34.9999 33.9998 34.9999Z" fill="#03045E"/>
<path d="M23.9997 24.9999C23.4474 24.9999 22.9997 25.4476 22.9997 25.9999V28.9999C22.9997 29.5522 23.4474 29.9999 23.9997 29.9999C24.552 29.9999 24.9997 29.5522 24.9997 28.9999V25.9999C24.9997 25.4476 24.552 24.9999 23.9997 24.9999Z" fill="#03045E"/>
<path d="M23.9997 31C23.4474 31 22.9997 31.4477 22.9997 32V34C22.9997 34.5523 23.4474 35 23.9997 35C24.552 35 24.9997 34.5523 24.9997 34V32C24.9997 31.4477 24.552 31 23.9997 31Z" fill="#03045E"/>
<path d="M29.9997 21C30.552 21 30.9997 20.5523 30.9997 20V19C30.9997 18.4477 30.552 18 29.9997 18C29.4475 18 28.9998 18.4477 28.9998 19V20C28.9998 20.5523 29.4475 21 29.9997 21Z" fill="#03045E"/>
<path d="M29.9997 38.9999C29.4475 38.9999 28.9998 39.4476 28.9998 39.9999V40.9999C28.9998 41.5522 29.4475 41.9999 29.9997 41.9999C30.552 41.9999 30.9997 41.5522 30.9997 40.9999V39.9999C30.9997 39.4476 30.552 38.9999 29.9997 38.9999Z" fill="#03045E"/>
<path d="M19.9998 29H18.9998C18.4475 29 17.9998 29.4477 17.9998 30C17.9998 30.5523 18.4475 31 18.9998 31H19.9998C20.5521 31 20.9998 30.5523 20.9998 30C20.9998 29.4477 20.5521 29 19.9998 29Z" fill="#03045E"/>
<path d="M40.9999 29H39.9999C39.4477 29 38.9999 29.4477 38.9999 30C38.9999 30.5523 39.4477 31 39.9999 31H40.9999C41.5522 31 41.9999 30.5523 41.9999 30C41.9999 29.4477 41.5522 29 40.9999 29Z" fill="#03045E"/>
</g>
<defs>
<clipPath id="clip0">
<rect width="60" height="60" fill="white"/>
</clipPath>
</defs>
</svg>
