<svg width="30" height="30" viewBox="0 0 30 30" fill="none" xmlns="http://www.w3.org/2000/svg">
<path d="M11.5918 19.2216C11.6048 19.0842 11.6879 18.9643 11.8099 18.9066C15.2732 17.1285 17.0461 13.0936 16.0549 9.24557C15.0636 5.39754 11.5807 2.79443 7.71559 3.01276C3.41606 3.30494 0.0570449 6.9465 0.000115151 11.3773C-0.0163629 14.5685 1.73682 17.4904 4.51775 18.9066C4.63976 18.9643 4.7228 19.0842 4.73584 19.2216L4.85247 20.9283C4.85247 20.9539 4.85869 20.9786 4.86102 21.0042H4.85946L5.2245 26.2577C5.25462 26.6764 5.59371 27.0003 6.00199 27.0005H10.3276C10.735 26.9993 11.0729 26.6759 11.1031 26.2581L11.4682 21.0258L11.5918 19.2216ZM0.777611 11.3789C0.829107 7.37052 3.86759 4.07598 7.75719 3.81112C7.89481 3.80352 8.02931 3.79992 8.16771 3.79992C12.2455 3.80213 15.55 7.2022 15.55 11.3956C15.5585 14.2772 13.973 16.913 11.462 18.1918C11.0935 18.3746 10.8476 18.7454 10.8166 19.1649L10.6907 20.9687C10.6405 21.6891 10.302 22.3558 9.75584 22.8099C9.20966 23.2639 8.50478 23.4646 7.80928 23.3641C6.60261 23.1637 5.69494 22.1255 5.62918 20.8703L5.51256 19.1641C5.48105 18.7445 5.23454 18.374 4.86568 18.1918C2.34891 16.9108 0.762279 14.2666 0.777611 11.3789ZM10.3276 26.2013H6.00005L5.78585 23.123C6.29122 23.6842 6.9694 24.0488 7.70588 24.1553C7.85908 24.1766 8.0135 24.1873 8.1681 24.1872C9.06355 24.1914 9.92119 23.8164 10.5395 23.1502L10.3276 26.2013Z" fill="black"/>
<path d="M13.995 11.3956C13.995 8.08379 11.3843 5.39901 8.16379 5.39901C4.9433 5.39901 2.33258 8.08379 2.33258 11.3956C2.33258 14.7075 4.9433 17.3923 8.16379 17.3923C11.3828 17.3885 13.9914 14.7059 13.995 11.3956ZM3.11008 11.3956C3.11008 8.52537 5.3727 6.19856 8.16379 6.19856C10.9549 6.19856 13.2175 8.52537 13.2175 11.3956C13.2175 14.2659 10.9549 16.5927 8.16379 16.5927C5.37403 16.5894 3.11329 14.2645 3.11008 11.3956Z" fill="black"/>
<path d="M8.16377 7.79767C8.37846 7.79767 8.55251 7.61868 8.55251 7.39789C8.55251 7.1771 8.37846 6.99812 8.16377 6.99812C7.94907 6.99812 7.77502 7.1771 7.77502 7.39789C7.77502 7.61868 7.94907 7.79767 8.16377 7.79767Z" fill="black"/>
<path d="M6.02575 7.5874C5.88958 7.66825 5.81417 7.82549 5.8347 7.9858C5.85522 8.14611 5.96763 8.27792 6.11951 8.31977C6.27139 8.36162 6.43282 8.30526 6.52854 8.17698C6.62426 8.04869 6.6354 7.87375 6.55678 7.73372C6.44943 7.54252 6.21168 7.47701 6.02575 7.5874Z" fill="black"/>
<path d="M4.99166 9.05056C4.85549 8.96971 4.68537 8.98117 4.56063 9.0796C4.43588 9.17803 4.38108 9.34404 4.42177 9.50023C4.46247 9.65641 4.59064 9.77201 4.74653 9.79312C4.90242 9.81422 5.05533 9.73668 5.13394 9.59665C5.24129 9.40545 5.17759 9.16096 4.99166 9.05056Z" fill="black"/>
<path d="M4.27638 11.7954C4.49108 11.7954 4.66513 11.6164 4.66513 11.3956C4.66513 11.1749 4.49108 10.9959 4.27638 10.9959C4.06168 10.9959 3.88763 11.1749 3.88763 11.3956C3.88763 11.6164 4.06168 11.7954 4.27638 11.7954Z" fill="black"/>
<path d="M12.0513 11.7954C12.266 11.7954 12.4401 11.6164 12.4401 11.3956C12.4401 11.1749 12.266 10.9959 12.0513 10.9959C11.8366 10.9959 11.6626 11.1749 11.6626 11.3956C11.6626 11.6164 11.8366 11.7954 12.0513 11.7954Z" fill="black"/>
<path d="M11.7247 9.74297C11.8609 9.66213 11.9363 9.50489 11.9158 9.34458C11.8953 9.18427 11.7828 9.05245 11.631 9.01061C11.4791 8.96876 11.3176 9.02512 11.2219 9.1534C11.1262 9.28168 11.1151 9.45663 11.1937 9.59666C11.301 9.78786 11.5388 9.85336 11.7247 9.74297Z" fill="black"/>
<path d="M9.91318 8.2798C10.0493 8.36065 10.2195 8.34919 10.3442 8.25076C10.4689 8.15233 10.5238 7.98631 10.4831 7.83012C10.4424 7.67394 10.3142 7.55834 10.1583 7.53723C10.0024 7.51613 9.84951 7.59367 9.7709 7.7337C9.66355 7.92491 9.72725 8.1694 9.91318 8.2798Z" fill="black"/>
<path d="M6.99758 11.3956C6.99758 12.058 7.51973 12.595 8.16382 12.595C8.80792 12.595 9.33006 12.058 9.33006 11.3956C9.33006 10.7333 8.80792 10.1963 8.16382 10.1963C8.08547 10.1963 8.00732 10.2044 7.93058 10.2207L7.33113 9.19128C7.25974 9.06874 7.1302 8.99467 6.99131 8.99697C6.85242 8.99927 6.72527 9.0776 6.65776 9.20245C6.59026 9.3273 6.59265 9.4797 6.66404 9.60225L7.26698 10.6381C7.09414 10.8506 6.99886 11.1186 6.99758 11.3956ZM8.55257 11.3956C8.55257 11.6164 8.37852 11.7954 8.16382 11.7954C7.94912 11.7954 7.77508 11.6164 7.77508 11.3956C7.77508 11.1748 7.94912 10.9959 8.16382 10.9959C8.37852 10.9959 8.55257 11.1748 8.55257 11.3956Z" fill="black"/>
<path d="M9.32998 14.5939C9.32998 13.9315 8.80784 13.3945 8.16374 13.3945C7.51964 13.3945 6.9975 13.9315 6.9975 14.5939C6.9975 15.2562 7.51964 15.7932 8.16374 15.7932C8.80784 15.7932 9.32998 15.2562 9.32998 14.5939ZM7.77499 14.5939C7.77499 14.3731 7.94904 14.1941 8.16374 14.1941C8.37844 14.1941 8.55249 14.3731 8.55249 14.5939C8.55249 14.8146 8.37844 14.9936 8.16374 14.9936C7.94904 14.9936 7.77499 14.8146 7.77499 14.5939Z" fill="black"/>
<path d="M8.16388 19.3911C7.30508 19.3911 6.60889 20.1071 6.60889 20.9902C6.60889 21.8734 7.30508 22.5893 8.16388 22.5893C9.02269 22.5893 9.71888 21.8734 9.71888 20.9902C9.71888 20.1071 9.02269 19.3911 8.16388 19.3911ZM8.16388 21.7898C7.73448 21.7898 7.38639 21.4318 7.38639 20.9902C7.38639 20.5487 7.73448 20.1907 8.16388 20.1907C8.59328 20.1907 8.94138 20.5487 8.94138 20.9902C8.94138 21.4318 8.59328 21.7898 8.16388 21.7898Z" fill="black"/>
<path d="M15.5469 27V21.9023H14.6035V20.6602H15.5469V20.3672C15.5547 19.5703 15.7988 18.957 16.2793 18.5273C16.7637 18.0938 17.4453 17.877 18.3242 17.877C18.8516 17.877 19.4922 17.9922 20.2461 18.2227L20 19.623C19.6172 19.5098 19.3203 19.4375 19.1094 19.4062C18.8984 19.3711 18.6719 19.3535 18.4297 19.3535C17.6406 19.3535 17.2461 19.7031 17.2461 20.4023V20.6602H18.4941V21.9023H17.2461V27H15.5469ZM21.0371 27H19.3379V20.6602H21.0371V27ZM23.9961 20.6602L24.0488 21.3926C24.502 20.8262 25.1094 20.543 25.8711 20.543C26.543 20.543 27.043 20.7402 27.3711 21.1348C27.6992 21.5293 27.8672 22.1191 27.875 22.9043V27H26.1816V22.9453C26.1816 22.5859 26.1035 22.3262 25.9473 22.166C25.791 22.002 25.5312 21.9199 25.168 21.9199C24.6914 21.9199 24.334 22.123 24.0957 22.5293V27H22.4023V20.6602H23.9961Z" fill="black"/>
</svg>
