<svg width="24" height="28" viewBox="0 0 24 28" fill="none" xmlns="http://www.w3.org/2000/svg">
<path d="M12 19.5C13.3807 19.5 14.5 18.3807 14.5 17C14.5 15.6193 13.3807 14.5 12 14.5C10.6193 14.5 9.5 15.6193 9.5 17C9.5 18.3807 10.6193 19.5 12 19.5ZM12 19.5V22.5M7.5 10.5V6C7.5 4.80653 7.97411 3.66193 8.81802 2.81802C9.66193 1.97411 10.8065 1.5 12 1.5C13.1935 1.5 14.3381 1.97411 15.182 2.81802C16.0259 3.66193 16.5 4.80653 16.5 6M2 10.5H22C22.5523 10.5 23 10.9477 23 11.5V25.5C23 26.0523 22.5523 26.5 22 26.5H2C1.44772 26.5 1 26.0523 1 25.5V11.5C1 10.9477 1.44772 10.5 2 10.5Z" stroke="#2DD6FF" stroke-width="2" stroke-linecap="round" stroke-linejoin="round"/>
</svg>
