<svg width="20" height="20" viewBox="0 0 20 20" fill="none" xmlns="http://www.w3.org/2000/svg">
<g clip-path="url(#clip0)">
<path d="M4.17969 7.42188C4.17969 10.6528 6.80817 13.2813 10.0391 13.2813C13.27 13.2813 15.8985 10.6528 15.8985 7.42188C15.8985 4.19098 13.27 1.5625 10.0391 1.5625C6.80817 1.5625 4.17969 4.19098 4.17969 7.42188ZM10.0391 2.34375C12.8392 2.34375 15.1172 4.62174 15.1172 7.42188C15.1172 10.222 12.8392 12.5 10.0391 12.5C7.23893 12.5 4.96094 10.222 4.96094 7.42188C4.96094 4.62174 7.23893 2.34375 10.0391 2.34375Z" fill="#690056"/>
<path d="M6.42148 6.72549L7.93562 8.21734L7.58726 10.3141C7.563 10.4601 7.62327 10.6072 7.74305 10.6942C7.86268 10.7811 8.02122 10.7929 8.1526 10.7248L10.039 9.74521L11.9253 10.7248C12.0557 10.7924 12.2142 10.7819 12.3349 10.6942C12.4547 10.6072 12.5149 10.4601 12.4907 10.3141L12.1423 8.21734L13.6565 6.72549C13.7619 6.62173 13.7996 6.46731 13.7538 6.32647C13.708 6.18578 13.5867 6.08309 13.4404 6.06097L11.3391 5.74465L10.3883 3.84325C10.3223 3.71095 10.1869 3.62733 10.039 3.62733C9.89104 3.62733 9.75584 3.71095 9.68962 3.84325L8.73884 5.74465L6.63755 6.06097C6.49122 6.08294 6.36991 6.18578 6.32413 6.32647C6.27836 6.46731 6.3162 6.62173 6.42148 6.72549ZM9.05577 6.48699C9.1815 6.46807 9.29014 6.38918 9.34706 6.27551L10.039 4.89138L10.731 6.27551C10.788 6.38918 10.8966 6.46807 11.0223 6.48699L12.5517 6.71725L11.4496 7.80291C11.3591 7.89218 11.3176 8.0199 11.3383 8.14532L11.5919 9.67136L10.219 8.95847C10.1626 8.92917 10.1008 8.91452 10.039 8.91452C9.97725 8.91452 9.91545 8.92917 9.85899 8.95847L8.486 9.67136L8.73961 8.14532C8.76051 8.0199 8.71901 7.89218 8.62837 7.80291L7.52638 6.71725L9.05577 6.48699Z" fill="#690056"/>
<path d="M10.4297 0.390626C10.4297 0.606385 10.2548 0.781251 10.0391 0.781251C9.8233 0.781251 9.64844 0.606385 9.64844 0.390626C9.64844 0.174866 9.8233 0 10.0391 0C10.2548 0 10.4297 0.174866 10.4297 0.390626Z" fill="#690056"/>
<path d="M8.1981 0.230252C4.91211 1.06903 2.61719 4.02634 2.61719 7.42189C2.61719 9.53081 3.50388 11.518 5.06043 12.9253L2.70706 17.0728C2.63138 17.2063 2.64084 17.3717 2.73117 17.4956C2.8215 17.6197 2.97592 17.6793 3.12622 17.648L5.7988 17.0931L6.73813 19.74C6.7891 19.8841 6.91956 19.9849 7.07184 19.9985C7.22413 20.0121 7.37015 19.9353 7.44569 19.8024L10.0391 15.2431L12.6323 19.8024C12.7022 19.9253 12.8322 19.9999 12.9717 19.9999C12.9831 19.9999 12.9947 19.9994 13.0061 19.9985C13.1584 19.9849 13.2889 19.8839 13.34 19.74L14.2792 17.0931L16.9518 17.648C17.1019 17.6792 17.2565 17.6195 17.3468 17.4956C17.4373 17.3717 17.4466 17.2063 17.3709 17.0728L15.0176 12.9253C16.5741 11.518 17.4608 9.53081 17.4608 7.42189C17.4608 4.02634 15.1659 1.06903 11.88 0.230252C11.6708 0.176846 11.4583 0.303036 11.4049 0.512082C11.3515 0.721128 11.4777 0.933836 11.6867 0.987242C14.6265 1.73767 16.6797 4.3837 16.6797 7.42189C16.6797 11.1196 13.6766 14.0625 10.0391 14.0625C6.39893 14.0625 3.39844 11.1171 3.39844 7.42189C3.39844 4.3837 5.45151 1.73767 8.39127 0.987242C8.60032 0.933836 8.72651 0.721128 8.67326 0.512082C8.61985 0.303036 8.4073 0.176846 8.1981 0.230252ZM7.18888 18.674L6.42121 16.5108C6.3559 16.3268 6.16486 16.2192 5.97367 16.2589L3.81256 16.7076L5.67505 13.4252C6.76102 14.2147 8.04688 14.6956 9.38401 14.8146L7.18888 18.674ZM14.1043 16.2589C13.9133 16.2192 13.7221 16.3268 13.6568 16.5108L12.8893 18.674L10.694 14.8146C12.0313 14.6956 13.317 14.2147 14.4031 13.4252L16.2656 16.7076L14.1043 16.2589Z" fill="#690056"/>
</g>
<defs>
<clipPath id="clip0">
<rect width="20" height="20" fill="white"/>
</clipPath>
</defs>
</svg>
