<svg width="50" height="50" viewBox="0 0 50 50" fill="none" xmlns="http://www.w3.org/2000/svg">
<path d="M35.3274 6H10.6375C10.0443 6 9.56183 6.43633 9.56183 6.97257V10.6544H9.38971C8.07207 10.6544 7 11.6235 7 12.8149C7 14.0062 8.07198 14.9755 9.38971 14.9755H9.56183V17.2468H9.38971C8.07207 17.2468 7 18.216 7 19.4073C7 20.5986 8.07198 21.5679 9.38971 21.5679H9.56183V23.8391H9.38971C8.07207 23.8391 7 24.8084 7 25.9997C7 27.191 8.07198 28.1603 9.38971 28.1603H9.56183V30.4315H9.38971C8.07207 30.4315 7 31.4007 7 32.5921C7 33.7835 8.07198 34.7527 9.38971 34.7527H9.56183V37.0239H9.38971C8.07207 37.0239 7 37.9932 7 39.1845C7 40.3758 8.07198 41.3451 9.38971 41.3451H9.56183V45.0274C9.56183 45.5638 10.0444 46 10.6375 46H17.0191C17.3756 46 17.6646 45.7388 17.6646 45.4165C17.6646 45.0942 17.3756 44.8327 17.0191 44.8327H10.8527V41.3449H12.7691C13.1256 41.3449 13.4146 41.0837 13.4146 40.7614V37.6074C13.4146 37.285 13.1257 37.0239 12.7691 37.0239H10.8527V34.7526H12.7691C13.1256 34.7526 13.4146 34.4914 13.4146 34.1691V31.0151C13.4146 30.6928 13.1257 30.4315 12.7691 30.4315H10.8527V28.1603H12.7691C13.1256 28.1603 13.4146 27.8991 13.4146 27.5768V24.4227C13.4146 24.1004 13.1257 23.8392 12.7691 23.8392H10.8527V21.568H12.7691C13.1256 21.568 13.4146 21.3067 13.4146 20.9844V17.8304C13.4146 17.5081 13.1257 17.2468 12.7691 17.2468H10.8527V14.9756H12.7691C13.1256 14.9756 13.4146 14.7143 13.4146 14.3921V11.2379C13.4146 10.9156 13.1257 10.6544 12.7691 10.6544H10.8527V7.1671H35.3274C37.3104 7.1671 38.9237 8.62577 38.9237 10.4187V15.8071C38.9237 16.1295 39.2127 16.3907 39.5692 16.3907C39.9257 16.3907 40.2147 16.1295 40.2147 15.8071V10.4187C40.2147 7.98218 38.0222 6 35.3274 6ZM12.1238 38.1909V40.1778H9.38962C8.78373 40.1778 8.29085 39.7321 8.29085 39.1843C8.29085 38.6366 8.78381 38.1909 9.38971 38.1909H12.1238ZM12.1238 31.5986V33.5854H9.38962C8.78373 33.5854 8.29085 33.1398 8.29085 32.592C8.29085 32.0443 8.78381 31.5986 9.38971 31.5986H12.1238ZM12.1238 25.0062V26.993H9.38962C8.78373 26.9931 8.29085 26.5475 8.29085 25.9996C8.29085 25.4519 8.78381 25.0062 9.38971 25.0062H12.1238ZM12.1238 18.4139V20.4007H9.38962C8.78373 20.4007 8.29085 19.9551 8.29085 19.4073C8.29085 18.8596 8.78381 18.4139 9.38971 18.4139H12.1238ZM12.1238 11.8215V13.8083H9.38962C8.78373 13.8084 8.29085 13.3628 8.29085 12.8149C8.29085 12.2672 8.78381 11.8215 9.38971 11.8215H12.1238Z" fill="#690056"/>
<path d="M46.9966 24.896C46.96 24.2203 46.6346 23.5978 46.0802 23.1434C45.5258 22.6891 44.8091 22.4569 44.0615 22.49C43.3141 22.5231 42.6257 22.8174 42.1231 23.3185L40.2146 25.2218V19.8142C40.2146 19.4919 39.9257 19.2307 39.5692 19.2307C39.2127 19.2307 38.9237 19.4919 38.9237 19.8142V26.4409C38.9237 26.4626 38.9253 26.4839 38.9278 26.505L31.1146 34.2965C31.0982 34.3128 31.0834 34.3298 31.0695 34.3473C31.0664 34.3511 31.0638 34.3552 31.0608 34.3591C31.0491 34.3746 31.0382 34.3904 31.0282 34.4067C31.025 34.4121 31.0218 34.4175 31.0187 34.423C31.0092 34.4398 31.0007 34.4569 30.9931 34.4743C30.9912 34.4786 30.9891 34.4828 30.9874 34.4872C30.9784 34.5093 30.9707 34.5319 30.9647 34.5547C30.9646 34.5554 30.9642 34.5561 30.964 34.5568L29.965 38.4551C29.9122 38.6613 29.9868 38.8771 30.1603 39.0192C30.2808 39.118 30.436 39.1704 30.5939 39.1704C30.663 39.1704 30.7326 39.1604 30.8002 39.1398L34.9938 37.86C34.9954 37.8596 34.9969 37.8588 34.9984 37.8583C35.0223 37.8508 35.0456 37.8421 35.0683 37.8322C35.0737 37.8299 35.0787 37.8271 35.084 37.8247C35.1014 37.8166 35.1184 37.8078 35.135 37.7982C35.1416 37.7942 35.1482 37.7903 35.1548 37.7863C35.1706 37.7764 35.1858 37.7658 35.2005 37.7546C35.2053 37.751 35.2102 37.7477 35.2149 37.744C35.2325 37.7299 35.2496 37.7151 35.2656 37.6992L38.924 34.051V41.5813C38.924 43.3741 37.3106 44.8328 35.3277 44.8328H21.5586C21.2021 44.8328 20.9131 45.0941 20.9131 45.4163C20.9131 45.7386 21.2021 45.9998 21.5586 45.9998H35.3274C38.0222 45.9998 40.2146 44.0177 40.2146 41.5812V32.9248C40.2146 32.876 40.2072 32.8288 40.1947 32.7835L46.2739 26.7212C46.7765 26.22 47.0331 25.5717 46.9966 24.896ZM41.7296 25.4486L42.3705 25.974L33.1454 35.1734L32.5045 34.6481L41.7296 25.4486ZM31.4838 37.6993L31.9735 35.7882L33.5395 37.0719L31.4838 37.6993ZM34.7427 36.4828L34.1018 35.9574L43.327 26.758L43.9679 27.2833L34.7427 36.4828ZM45.3176 25.9373L44.8349 26.4186L42.5967 24.5839L43.0795 24.1025C43.3505 23.8323 43.7217 23.6736 44.1247 23.6558C44.5276 23.6378 44.9143 23.763 45.2132 24.0081C45.5122 24.2531 45.6876 24.5888 45.7073 24.9531C45.727 25.3175 45.5886 25.667 45.3176 25.9373Z" fill="#690056"/>
<rect x="1" y="1" width="48" height="48" stroke="#690056" stroke-width="2"/>
</svg>
