<svg width="50" height="50" viewBox="0 0 50 50" fill="none" xmlns="http://www.w3.org/2000/svg">
<g clip-path="url(#clip0)">
<path d="M36.9893 8.33347C35.5165 8.33347 34.3226 9.52738 34.3226 11.0001C34.3226 12.4729 35.5165 13.6668 36.9893 13.6668C38.462 13.6668 39.6559 12.4729 39.6559 11.0001C39.6559 9.52738 38.462 8.33347 36.9893 8.33347ZM36.9893 12.3334C36.2529 12.3334 35.656 11.7365 35.656 11.0001C35.656 10.2637 36.2529 9.66679 36.9893 9.66679C37.7257 9.66679 38.3226 10.2637 38.3226 11.0001C38.3226 11.7365 37.7257 12.3334 36.9893 12.3334Z" fill="#690056"/>
<path d="M44.7172 5.1208C44.539 4.99589 44.311 4.96572 44.1065 5.04014L39.9105 6.56613C37.5155 4.94555 34.2603 5.5733 32.6397 7.96829C32.5628 8.08204 32.4903 8.19871 32.4226 8.31812C32.2173 8.68196 32.0523 9.06712 31.9306 9.46679L29.6586 10.2941L17.8786 6.36746C17.7419 6.32722 17.5957 6.33305 17.4626 6.38413L17.4573 6.36746L5.45734 10.3674C5.18501 10.4582 5.00126 10.713 5.00134 11.0001V44.3333C5.00134 44.7015 5.29984 45 5.66801 45C5.73959 44.9999 5.81067 44.9885 5.87867 44.966L17.668 41.036L29.4572 44.966C29.5252 44.9885 29.5963 44.9999 29.6679 45C29.7454 44.9988 29.8221 44.9841 29.8946 44.9566L44.5612 39.6233C44.824 39.5283 44.9997 39.2795 45.0012 39V5.6668C45.0012 5.44939 44.8952 5.24564 44.7172 5.1208ZM33.5799 8.97945C34.6564 7.09563 37.0563 6.44113 38.9401 7.51771C39.5491 7.86571 40.0539 8.37046 40.4019 8.97945C41.1324 10.2544 41.1754 11.8107 40.5165 13.1241L36.9905 20.1761L33.4679 13.1241C32.8086 11.811 32.8506 10.255 33.5799 8.97945ZM43.6678 38.5333L30.3346 43.3813V42.3333C30.3346 41.9651 30.0361 41.6666 29.6679 41.6666C29.2997 41.6666 29.0012 41.9651 29.0012 42.3333V43.4086L18.3346 39.8527V15.6668C18.3346 15.2986 18.0361 15.0001 17.668 15.0001C17.2998 15.0001 17.0013 15.2986 17.0013 15.6668V39.8527L6.33467 43.4086V11.4808L17.0013 7.92546V10.3334C17.0013 10.7016 17.2998 11.0001 17.668 11.0001C18.0361 11.0001 18.3346 10.7016 18.3346 10.3334V7.92479L29.0012 11.4808V35.6667C29.0012 36.0348 29.2997 36.3333 29.6679 36.3333C30.0361 36.3333 30.3346 36.0348 30.3346 35.6667V11.4668L31.6679 10.9808C31.6375 11.9295 31.8437 12.8709 32.2679 13.7201L36.3945 21.9647C36.5591 22.2941 36.9595 22.4276 37.289 22.263C37.418 22.1985 37.5227 22.0938 37.5872 21.9647L41.7092 13.7208C42.567 12.0094 42.5108 9.98195 41.5592 8.32079C41.4061 8.05879 41.2304 7.81071 41.0339 7.57946L43.6678 6.6188V38.5333Z" fill="#690056"/>
<path d="M37.9426 26.3334L38.8046 25.4714C39.0649 25.2111 39.0649 24.7891 38.8046 24.5287C38.5443 24.2685 38.1223 24.2685 37.8619 24.5287L36.9999 25.3907L36.1379 24.5287C35.8731 24.2729 35.4511 24.2802 35.1953 24.5451C34.9457 24.8034 34.9457 25.2131 35.1953 25.4714L36.0573 26.3334L35.1953 27.1954C34.9304 27.4512 34.9231 27.8732 35.1789 28.1381C35.4348 28.4029 35.8568 28.4102 36.1216 28.1544C36.1271 28.1491 36.1326 28.1436 36.1379 28.1381L36.9999 27.2761L37.8619 28.1381C38.1268 28.3939 38.5488 28.3866 38.8046 28.1217C39.0542 27.8634 39.0542 27.4537 38.8046 27.1954L37.9426 26.3334Z" fill="#690056"/>
<path d="M15 31.6667C14.6319 31.6667 14.3334 31.9652 14.3334 32.3334V33.6667C14.3334 34.0349 14.6319 34.3334 15 34.3334C15.3682 34.3334 15.6667 34.0349 15.6667 33.6667V32.3334C15.6667 31.9652 15.3682 31.6667 15 31.6667Z" fill="#690056"/>
<path d="M15 27.6667C14.6319 27.6667 14.3334 27.9652 14.3334 28.3334V29.6667C14.3334 30.0349 14.6319 30.3334 15 30.3334C15.3682 30.3334 15.6667 30.0349 15.6667 29.6667V28.3334C15.6667 27.9652 15.3682 27.6667 15 27.6667Z" fill="#690056"/>
<path d="M15 23.6667C14.6319 23.6667 14.3334 23.9652 14.3334 24.3334V25.6667C14.3334 26.0349 14.6319 26.3334 15 26.3334C15.3682 26.3334 15.6667 26.0349 15.6667 25.6667V24.3334C15.6667 23.9652 15.3682 23.6667 15 23.6667Z" fill="#690056"/>
<path d="M15 19.6668C14.6319 19.6668 14.3334 19.9653 14.3334 20.3334V21.6668C14.3334 22.0349 14.6319 22.3334 15 22.3334C15.3682 22.3334 15.6667 22.0349 15.6667 21.6668V20.3334C15.6667 19.9653 15.3682 19.6668 15 19.6668Z" fill="#690056"/>
<path d="M15.3878 15.0283C15.3876 15.0282 15.3874 15.0282 15.3874 15.0281C15.0348 14.922 14.663 15.1218 14.5569 15.4744C14.5568 15.4745 14.5568 15.4747 14.5567 15.4748C14.4085 15.9697 14.3333 16.4835 14.3334 17.0001C14.3334 17.3683 14.6319 17.6668 15 17.6668C15.3682 17.6668 15.6667 17.3683 15.6667 17.0001C15.6664 16.6135 15.7227 16.229 15.834 15.8588C15.9402 15.5062 15.7404 15.1344 15.3878 15.0283Z" fill="#690056"/>
<path d="M18.2151 12.4833C18.0512 12.1874 17.6917 12.0611 17.3787 12.1895V12.1855C16.8113 12.4569 16.2962 12.8262 15.8567 13.2762C15.599 13.5394 15.6035 13.9617 15.8667 14.2195C16.13 14.4772 16.5523 14.4727 16.8101 14.2095C17.1406 13.8711 17.528 13.5935 17.9547 13.3895C18.2768 13.2112 18.3934 12.8054 18.2151 12.4833Z" fill="#690056"/>
<path d="M21.6667 11.6668H20.3334C19.9652 11.6668 19.6667 11.9653 19.6667 12.3334C19.6667 12.7016 19.9652 13.0001 20.3334 13.0001H21.6667C22.0348 13.0001 22.3333 12.7016 22.3333 12.3334C22.3333 11.9653 22.0348 11.6668 21.6667 11.6668Z" fill="#690056"/>
<path d="M26.1206 12.865C26.1175 12.8623 26.1144 12.8595 26.1114 12.8568V12.8554C25.6582 12.449 25.1295 12.1357 24.5554 11.9334C24.2082 11.8109 23.8273 11.9929 23.7047 12.3401C23.5821 12.6873 23.7642 13.0682 24.1114 13.1908C24.5213 13.3355 24.8987 13.5595 25.222 13.8501C25.494 14.0983 25.9157 14.0789 26.1639 13.8069C26.4119 13.5349 26.3926 13.1132 26.1206 12.865Z" fill="#690056"/>
<path d="M27.6666 16.9888C27.6606 16.6381 27.6426 15.7961 27.6 15.5561C27.5391 15.1973 27.1998 14.9551 26.8406 15.0142C26.4791 15.0739 26.2318 15.4121 26.2846 15.7748C26.3026 15.8988 26.3226 16.5135 26.3313 17.0115C26.3375 17.376 26.6354 17.668 27 17.6668H27.0113C27.3795 17.6606 27.6729 17.3571 27.6666 16.989C27.6666 16.989 27.6666 16.9889 27.6666 16.9888Z" fill="#690056"/>
<path d="M27 19.0001C26.6318 19.0001 26.3333 19.2986 26.3333 19.6668V21.0001C26.3333 21.3683 26.6318 21.6668 27 21.6668C27.3681 21.6668 27.6666 21.3683 27.6666 21.0001V19.6668C27.6666 19.2986 27.3681 19.0001 27 19.0001Z" fill="#690056"/>
<path d="M27 23.0001C26.6318 23.0001 26.3333 23.2986 26.3333 23.6668V25.0001C26.3333 25.3682 26.6318 25.6667 27 25.6667C27.3681 25.6667 27.6666 25.3682 27.6666 25.0001V23.6668C27.6666 23.2986 27.3681 23.0001 27 23.0001Z" fill="#690056"/>
<path d="M27 27.0001C26.6318 27.0001 26.3333 27.2986 26.3333 27.6667V29.0001C26.3333 29.3682 26.6318 29.6667 27 29.6667C27.3681 29.6667 27.6666 29.3682 27.6666 29.0001V27.6667C27.6666 27.2986 27.3681 27.0001 27 27.0001Z" fill="#690056"/>
<path d="M27 31.0001C26.6318 31.0001 26.3333 31.2986 26.3333 31.6667V33.0001C26.3333 33.3682 26.6318 33.6667 27 33.6667C27.3681 33.6667 27.6666 33.3682 27.6666 33.0001V31.6667C27.6666 31.2986 27.3681 31.0001 27 31.0001Z" fill="#690056"/>
<path d="M28.1321 36.7022C28.1258 36.6904 28.1191 36.6788 28.112 36.6674C27.9133 36.3239 27.7781 35.9474 27.7126 35.556C27.6458 35.1939 27.2981 34.9546 26.9361 35.0214C26.5821 35.0868 26.3438 35.4214 26.398 35.7774C26.4895 36.3257 26.6792 36.853 26.958 37.334C27.1325 37.6583 27.5367 37.7796 27.861 37.6052C28.1851 37.4307 28.3066 37.0264 28.1321 36.7022Z" fill="#690056"/>
<path d="M31 38.3334C30.6215 38.3338 30.2456 38.2698 29.8886 38.144C29.5415 38.0214 29.1606 38.2035 29.038 38.5507C28.9154 38.8978 29.0975 39.2788 29.4446 39.4013C29.9442 39.5776 30.4702 39.6673 31 39.6667C31.3681 39.6667 31.6666 39.3682 31.6666 39C31.6666 38.6319 31.3681 38.3334 31 38.3334Z" fill="#690056"/>
<path d="M35.6057 38.139C35.4312 37.8148 35.027 37.6934 34.7028 37.8679C34.6909 37.8742 34.6793 37.8809 34.6679 37.888H34.6666C34.3235 38.0868 33.9476 38.2223 33.5566 38.288C33.1939 38.3515 32.9514 38.6969 33.0149 39.0596C33.0704 39.3768 33.3446 39.6089 33.6666 39.6113C33.7039 39.6115 33.7412 39.6084 33.7779 39.602C34.3263 39.5103 34.8535 39.3206 35.3346 39.042C35.6588 38.8675 35.7802 38.4633 35.6057 38.139Z" fill="#690056"/>
<path d="M36.9999 34.3334C36.6318 34.3334 36.3333 34.6319 36.3333 35C36.3337 35.3785 36.2697 35.7544 36.1439 36.1114C36.0213 36.4585 36.2034 36.8394 36.5506 36.962C36.8978 37.0846 37.2787 36.9025 37.4013 36.5554C37.5775 36.0558 37.6673 35.5298 37.6666 35C37.6666 34.6319 37.3681 34.3334 36.9999 34.3334Z" fill="#690056"/>
<path d="M37 30.3334C36.6318 30.3334 36.3333 30.6319 36.3333 31.0001V32.3334C36.3333 32.7016 36.6318 33.0001 37 33.0001C37.3681 33.0001 37.6666 32.7016 37.6666 32.3334V31.0001C37.6666 30.6319 37.3681 30.3334 37 30.3334Z" fill="#690056"/>
<path d="M15 35.6667C14.6319 35.6667 14.3334 35.9652 14.3334 36.3334V37.6667C14.3334 38.0349 14.6319 38.3334 15 38.3334C15.3682 38.3334 15.6667 38.0349 15.6667 37.6667V36.3334C15.6667 35.9652 15.3682 35.6667 15 35.6667Z" fill="#690056"/>
<path d="M10.3334 35C8.86066 35 7.66675 36.1939 7.66675 37.6667C7.66675 39.1394 8.86066 40.3333 10.3334 40.3333C11.8061 40.3333 13.0001 39.1394 13.0001 37.6667C13.0001 36.1939 11.8061 35 10.3334 35ZM10.3334 39C9.59699 39 9.00008 38.4031 9.00008 37.6667C9.00008 36.9303 9.59699 36.3334 10.3334 36.3334C11.0698 36.3334 11.6667 36.9303 11.6667 37.6667C11.6667 38.4031 11.0698 39 10.3334 39Z" fill="#690056"/>
</g>
<rect x="1" y="1" width="48" height="48" stroke="#690056" stroke-width="2"/>
<defs>
<clipPath id="clip0">
<rect width="40" height="40" fill="white" transform="translate(5 5)"/>
</clipPath>
</defs>
</svg>
