<svg width="30" height="30" viewBox="0 0 30 30" fill="none" xmlns="http://www.w3.org/2000/svg">
<path d="M3.5 30H8.5C9.73044 29.998 10.8695 29.3501 11.5 28.2935C12.1305 29.3501 13.2696 29.998 14.5 30H19.5C21.4321 29.9978 22.9978 28.4321 23 26.5V10.544C22.9991 9.41327 22.4534 8.35226 21.534 7.694L19.8125 6.4645C19.4271 6.19148 18.9717 6.03415 18.5 6.011V5H19C19.5523 5 20 4.55228 20 4H23C24.9321 4.0022 26.4978 5.56792 26.5 7.5V15.545C25.4992 15.7126 24.6513 16.3756 24.2474 17.3066C23.8435 18.2375 23.9386 19.3097 24.5 20.155V23.5C24.5 24.0523 24.9477 24.5 25.5 24.5H28.5C29.0523 24.5 29.5 24.0523 29.5 23.5V20.155C30.0614 19.3097 30.1565 18.2375 29.7526 17.3066C29.3487 16.3756 28.5008 15.7126 27.5 15.545V7.5C27.4972 5.01586 25.4841 3.00276 23 3H20C20 2.44772 19.5523 2 19 2H17.5V1H18C18.2761 1 18.5 0.776142 18.5 0.5C18.5 0.223858 18.2761 0 18 0H16C15.7239 0 15.5 0.223858 15.5 0.5C15.5 0.776142 15.7239 1 16 1H16.5V2H15C14.4477 2 14 2.44772 14 3H9C9 2.44772 8.55229 2 8 2H4C3.44772 2 3 2.44772 3 3H2V2.5C2 2.22386 1.77614 2 1.5 2C1.22386 2 1 2.22386 1 2.5V4.5C1 4.77614 1.22386 5 1.5 5C1.77614 5 2 4.77614 2 4.5V4H3C3 4.55228 3.44772 5 4 5H4.5V6.011C4.02833 6.0346 3.57319 6.19227 3.188 6.4655L1.4655 7.696C0.546764 8.35385 0.00122632 9.41403 0 10.544V26.5C0.00220432 28.4321 1.56792 29.9978 3.5 30ZM25.5 23.5V21.094C26.4267 21.6353 27.5733 21.6353 28.5 21.094V23.5H25.5ZM29 18.5C29 19.6046 28.1046 20.5 27 20.5C25.8954 20.5 25 19.6046 25 18.5C25 17.3954 25.8954 16.5 27 16.5C28.1046 16.5 29 17.3954 29 18.5ZM1 11.5H11V24.5H1V11.5ZM22 24.5H12V11.5H22V24.5ZM19.5 29H14.5C13.12 28.9983 12.0017 27.88 12 26.5V25.5H22V26.5C21.9983 27.88 20.88 28.9983 19.5 29ZM20.953 8.5095C21.5971 8.97012 21.9854 9.70827 22 10.5H12.0025C12.0165 9.70872 12.4038 8.97066 13.047 8.5095L14.7695 7.2795C15.0234 7.09703 15.3283 6.99923 15.641 7H18.359C18.6718 6.99929 18.9769 7.09708 19.231 7.2795L20.953 8.5095ZM17.5 6H16.5V5H17.5V6ZM15 3H19V4H15V3ZM9 4H14C14 4.55228 14.4477 5 15 5H15.5V6.011C15.0283 6.0346 14.5732 6.19227 14.188 6.4655L12.4655 7.696C12.0739 7.9782 11.7451 8.33864 11.5 8.7545C11.2547 8.33846 10.9258 7.97786 10.534 7.6955L8.8125 6.466C8.42725 6.19245 7.9719 6.03459 7.5 6.011V5H8C8.55229 5 9 4.55228 9 4ZM4 3H8V4H4V3ZM6.5 5V6H5.5V5H6.5ZM2.047 8.5095L3.7695 7.2795C4.02339 7.09703 4.32834 6.99923 4.641 7H7.359C7.6718 6.99929 7.97689 7.09708 8.231 7.2795L9.953 8.5095C10.5971 8.97012 10.9854 9.70827 11 10.5H1.0025C1.01655 9.70872 1.40384 8.97066 2.047 8.5095ZM1 25.5H11V26.5C10.9983 27.88 9.88003 28.9983 8.5 29H3.5C2.11997 28.9983 1.00165 27.88 1 26.5V25.5Z" fill="#03045E"/>
<path d="M8.00006 13.5H4.00006C3.44778 13.5 3.00006 13.9477 3.00006 14.5V16.5C3.00006 17.0523 3.44778 17.5 4.00006 17.5H8.00006C8.55235 17.5 9.00006 17.0523 9.00006 16.5V14.5C9.00006 13.9477 8.55235 13.5 8.00006 13.5ZM4.00006 16.5V14.5H8.00006V16.5H4.00006Z" fill="#03045E"/>
<path d="M8.50006 19.5H3.50006C3.22392 19.5 3.00006 19.7238 3.00006 20C3.00006 20.2761 3.22392 20.5 3.50006 20.5H8.50006C8.7762 20.5 9.00006 20.2761 9.00006 20C9.00006 19.7238 8.7762 19.5 8.50006 19.5Z" fill="#03045E"/>
<path d="M6.99993 21.5H4.99994C4.7238 21.5 4.49994 21.7239 4.49994 22C4.49994 22.2761 4.7238 22.5 4.99994 22.5H6.99993C7.27608 22.5 7.49993 22.2761 7.49993 22C7.49993 21.7239 7.27608 21.5 6.99993 21.5Z" fill="#03045E"/>
<path d="M15 17.5H19C19.5523 17.5 20 17.0523 20 16.5V14.5C20 13.9477 19.5523 13.5 19 13.5H15C14.4477 13.5 14 13.9477 14 14.5V16.5C14 17.0523 14.4477 17.5 15 17.5ZM15 14.5H19V16.5H15V14.5Z" fill="#03045E"/>
<path d="M14.5 20.5H19.5C19.7761 20.5 20 20.2761 20 20C20 19.7238 19.7761 19.5 19.5 19.5H14.5C14.2239 19.5 14 19.7238 14 20C14 20.2761 14.2239 20.5 14.5 20.5Z" fill="#03045E"/>
<path d="M18.0001 21.5H16.0001C15.724 21.5 15.5001 21.7239 15.5001 22C15.5001 22.2761 15.724 22.5 16.0001 22.5H18.0001C18.2763 22.5 18.5001 22.2761 18.5001 22C18.5001 21.7239 18.2763 21.5 18.0001 21.5Z" fill="#03045E"/>
<path d="M26.5001 17.5V18.5C26.5001 18.7762 26.7239 19 27.0001 19C27.2762 19 27.5 18.7762 27.5 18.5V17.5C27.5 17.2239 27.2762 17 27.0001 17C26.7239 17 26.5001 17.2239 26.5001 17.5Z" fill="#03045E"/>
</svg>
