<svg width="50" height="50" viewBox="0 0 50 50" fill="none" xmlns="http://www.w3.org/2000/svg">
<g clip-path="url(#clip0)">
<path d="M15.6667 23H10.3334C9.59701 23 9.00006 23.5969 9.00006 24.3333V27C9.00006 27.7363 9.59701 28.3333 10.3334 28.3333H15.0001C15.3683 28.3333 15.6667 28.0348 15.6667 27.6666C15.6667 27.2984 15.3683 27 15.0001 27H10.3334V24.3333H15.6667C16.0349 24.3333 16.3334 24.0348 16.3334 23.6666C16.3334 23.2984 16.0349 23 15.6667 23Z" fill="#690056"/>
<path d="M15.0001 31H9.66673C9.29854 31 9.00006 31.2984 9.00006 31.6666C9.00006 32.0348 9.29854 32.3333 9.66673 32.3333H15.0001C15.3682 32.3333 15.6667 32.0348 15.6667 31.6666C15.6667 31.2984 15.3682 31 15.0001 31Z" fill="#690056"/>
<path d="M14.3333 33.6667H11.6666C11.2984 33.6667 10.9999 33.9651 10.9999 34.3333C10.9999 34.7015 11.2984 35 11.6666 35H14.3333C14.7015 35 14.9999 34.7015 14.9999 34.3333C14.9999 33.9651 14.7015 33.6667 14.3333 33.6667Z" fill="#690056"/>
<path d="M21.0001 26.3333H21.6668C22.035 26.3333 22.3334 26.0349 22.3334 25.6667C22.3334 25.2985 22.035 25 21.6668 25H21.0001C20.6319 25 20.3334 25.2985 20.3334 25.6667C20.3334 26.0349 20.6319 26.3333 21.0001 26.3333Z" fill="#690056"/>
<path d="M24.3333 26.3333H27.6666C28.0348 26.3333 28.3333 26.0349 28.3333 25.6667C28.3333 25.2985 28.0348 25 27.6666 25H24.3333C23.9651 25 23.6666 25.2985 23.6666 25.6667C23.6666 26.0349 23.9651 26.3333 24.3333 26.3333Z" fill="#690056"/>
<path d="M28.3334 37C26.8606 37 25.6667 38.1939 25.6667 39.6667C25.6667 41.1395 26.8606 42.3334 28.3334 42.3334C29.8061 42.3334 31 41.1395 31 39.6667C31 38.1939 29.8061 37 28.3334 37ZM28.3334 41C27.597 41 27 40.4031 27 39.6667C27 38.9303 27.597 38.3334 28.3334 38.3334C29.0697 38.3334 29.6667 38.9303 29.6667 39.6667C29.6667 40.4031 29.0697 41 28.3334 41Z" fill="#690056"/>
<path d="M43 6.33333C41.8954 6.33333 41 7.22876 41 8.33333V35C41 36.4728 39.8061 37.6667 38.3333 37.6667H33.274C33.058 37.1352 32.7574 36.6422 32.384 36.2067C32.7265 36.0586 32.9921 35.7748 33.1173 35.4233L33.4813 34.3333H36.3333C38.1734 34.3311 39.6645 32.84 39.6667 31V27C39.6637 24.4239 37.5761 22.3363 35 22.3333H21.6667C21.4435 22.3352 21.2207 22.353 21 22.3867V19.06C20.9983 17.5548 20.2714 16.1427 19.0473 15.2667L16.75 13.6287C16.2377 13.2603 15.6302 13.0471 15 13.0147V11.6667H15.6667C16.403 11.6667 17 11.0697 17 10.3333V9C17 8.26362 16.403 7.66667 15.6667 7.66667H13.6667V6.33333H14.3333C14.7015 6.33333 15 6.03486 15 5.66667C15 5.29848 14.7015 5 14.3333 5H11.6667C11.2985 5 11 5.29848 11 5.66667C11 6.03486 11.2985 6.33333 11.6667 6.33333H12.3333V7.66667H10.3333C9.59695 7.66667 9 8.26362 9 9V10.3333C9 11.0697 9.59695 11.6667 10.3333 11.6667H11V13.0147C10.3712 13.0462 9.76469 13.2577 9.25267 13.624L6.95267 15.2667C5.72865 16.1427 5.00173 17.5548 5 19.06V40.3333C5.00294 42.9094 7.09056 44.9971 9.66667 45H16.3333C18.9094 44.9971 20.9971 42.9094 21 40.3333V34.3333H23.1853L23.5507 35.4333C23.6772 35.7818 23.9428 36.0621 24.284 36.2073C22.9096 37.8112 22.6121 40.0753 23.5255 41.9797C24.4389 43.8842 26.3908 45.0695 28.5018 45.0017C30.6129 44.9339 32.4847 43.6258 33.274 41.6667H38.3333C42.0136 41.6626 44.996 38.6802 45 35V8.33333C45 7.22876 44.1046 6.33333 43 6.33333V6.33333ZM25.756 35H24.8127L24.566 34.2567C25.6397 34.0438 26.5397 33.3157 26.972 32.31L28.0167 29.872C28.0789 29.7549 28.2007 29.6818 28.3333 29.6818C28.4659 29.6818 28.5877 29.7549 28.65 29.872L29.6947 32.31C30.1271 33.3153 31.0267 34.0433 32.1 34.2567L31.8533 35H30.9093C29.3067 34.1107 27.3587 34.1107 25.756 35V35ZM35 23.6667C36.84 23.6689 38.3311 25.16 38.3333 27V31C38.3333 32.1046 37.4379 33 36.3333 33H32.7587C31.9585 33.0002 31.2353 32.5234 30.92 31.788L29.8753 29.3493C29.6107 28.7328 29.0043 28.3331 28.3333 28.3331C27.6624 28.3331 27.0559 28.7328 26.7913 29.3493L25.7467 31.788C25.4314 32.5234 24.7082 33.0002 23.908 33H20.3333C19.2288 33 18.3333 32.1046 18.3333 31V27C18.3355 25.16 19.8266 23.6689 21.6667 23.6667H35ZM17 27V31C17.002 32.5834 18.1157 33.9477 19.6667 34.2667V37.6667H6.33333V20.3333H19.6667V22.79C18.0402 23.5615 17.0025 25.1998 17 27ZM10.3333 9H15.6667V10.3333H10.3333V9ZM13.6667 11.6667V13H12.3333V11.6667H13.6667ZM7.72667 16.3493L10.0293 14.7073C10.366 14.4637 10.7711 14.3328 11.1867 14.3333H14.8133C15.2298 14.3329 15.6357 14.4645 15.9727 14.7093L18.2727 16.3493C19.1304 16.9627 19.6474 17.9457 19.6667 19H6.33667C6.35498 17.9464 6.87041 16.9635 7.72667 16.3493V16.3493ZM16.3333 43.6667H9.66667C7.82663 43.6645 6.33554 42.1734 6.33333 40.3333V39H19.6667V40.3333C19.6645 42.1734 18.1734 43.6645 16.3333 43.6667ZM28.3333 43.6667C26.1242 43.6667 24.3333 41.8758 24.3333 39.6667C24.3333 37.4575 26.1242 35.6667 28.3333 35.6667C30.5425 35.6667 32.3333 37.4575 32.3333 39.6667C32.3311 41.8749 30.5416 43.6645 28.3333 43.6667ZM43.6667 35C43.6634 37.9441 41.2775 40.33 38.3333 40.3333H33.6207C33.682 39.891 33.682 39.4423 33.6207 39H38.3333C40.5416 38.9978 42.3311 37.2082 42.3333 35V8.33333C42.3333 7.96514 42.6318 7.66667 43 7.66667C43.3682 7.66667 43.6667 7.96514 43.6667 8.33333V35Z" fill="#690056"/>
<path d="M26.3334 18.3333C26.3334 19.8061 27.5273 21 29 21C30.4728 21 31.6667 19.8061 31.6667 18.3333C31.6667 16.8606 30.4728 15.6667 29 15.6667C27.5273 15.6667 26.3334 16.8606 26.3334 18.3333ZM29 17C29.7364 17 30.3334 17.5969 30.3334 18.3333C30.3334 19.0697 29.7364 19.6667 29 19.6667C28.2637 19.6667 27.6667 19.0697 27.6667 18.3333C27.6667 17.5969 28.2637 17 29 17Z" fill="#690056"/>
<path d="M24.3333 11.6666C23.2287 11.6666 22.3333 12.562 22.3333 13.6666C22.3333 14.7712 23.2287 15.6666 24.3333 15.6666C25.4379 15.6666 26.3333 14.7712 26.3333 13.6666C26.3333 12.562 25.4379 11.6666 24.3333 11.6666ZM24.3333 14.3333C23.9651 14.3333 23.6666 14.0348 23.6666 13.6666C23.6666 13.2984 23.9651 12.9999 24.3333 12.9999C24.7015 12.9999 25 13.2984 25 13.6666C25 14.0348 24.7015 14.3333 24.3333 14.3333Z" fill="#690056"/>
<path d="M30.3334 10.3333C31.4379 10.3333 32.3334 9.43791 32.3334 8.33334C32.3334 7.22877 31.4379 6.33334 30.3334 6.33334C29.2288 6.33334 28.3334 7.22877 28.3334 8.33334C28.3334 9.43791 29.2288 10.3333 30.3334 10.3333ZM30.3334 7.66668C30.7016 7.66668 31 7.96515 31 8.33334C31 8.70153 30.7016 9.00001 30.3334 9.00001C29.9652 9.00001 29.6667 8.70153 29.6667 8.33334C29.6667 7.96515 29.9652 7.66668 30.3334 7.66668Z" fill="#690056"/>
<path d="M28.3333 14.3333C28.7015 14.3333 29 14.0348 29 13.6666C29 13.2984 28.7015 13 28.3333 13C27.9652 13 27.6667 13.2984 27.6667 13.6666C27.6667 14.0348 27.9652 14.3333 28.3333 14.3333Z" fill="#690056"/>
</g>
<rect x="1" y="1" width="48" height="48" stroke="#690056" stroke-width="2"/>
<defs>
<clipPath id="clip0">
<rect width="40" height="40" fill="white" transform="translate(5 5)"/>
</clipPath>
</defs>
</svg>
