<svg width="30" height="30" viewBox="0 0 30 30" fill="none" xmlns="http://www.w3.org/2000/svg">
<path d="M22.089 5.74282V6.80121H17.9878V5.74282H22.089ZM20.3692 8.04958H17.9878V9.10796H20.3692V8.04958ZM17.9878 11.4147H22.089V10.3563H17.9878V11.4147ZM20.3692 12.6636H17.9878V13.722H20.3692V12.6636ZM17.9878 16.0288H22.089V14.9704H17.9878V16.0288ZM18.6271 22.0595C18.6271 25.014 16.2235 27.4176 13.269 27.4176C10.3145 27.4176 7.91089 25.014 7.91089 22.0595C7.91089 20.1448 8.91636 18.4048 10.5569 17.4422V5.29512C10.5569 3.79962 11.7735 2.583 13.269 2.583C14.7645 2.583 15.9811 3.79962 15.9811 5.29512V17.4422C17.6216 18.4038 18.6271 20.1443 18.6271 22.0595ZM17.5687 22.0595C17.5687 20.4348 16.6659 18.9663 15.2122 18.2281L14.9227 18.081V5.29565C14.9227 4.38332 14.1808 3.64192 13.269 3.64192C12.3572 3.64192 11.6152 4.38332 11.6152 5.29565V18.081L11.3258 18.2281C9.87208 18.9669 8.96927 20.4354 8.96927 22.0595C8.96927 24.4303 10.8982 26.3592 13.269 26.3592C15.6398 26.3592 17.5687 24.4303 17.5687 22.0595ZM16.687 22.0595C16.687 23.9439 15.154 25.477 13.269 25.477C11.3845 25.477 9.85144 23.9439 9.85144 22.0595C9.85144 20.5147 10.895 19.1584 12.3895 18.761L12.5858 18.7086V6.94462H13.9527V18.7081L14.149 18.761C15.644 19.1584 16.687 20.5153 16.687 22.0595ZM13.4383 19.7813C13.3568 19.4193 12.9927 19.1812 12.6218 19.2658C11.3263 19.559 10.4214 20.692 10.4214 22.0214C10.4214 22.3976 10.7278 22.704 11.104 22.704C11.4803 22.704 11.7867 22.3976 11.7867 22.0214C11.7867 21.3456 12.264 20.7465 12.9229 20.5978C13.2891 20.5137 13.5209 20.1475 13.4383 19.7813Z" fill="#03045E"/>
</svg>
