<svg width="27" height="26" viewBox="0 0 27 26" fill="none" xmlns="http://www.w3.org/2000/svg">
<path d="M0.507673 23.999C0.231393 24.4773 0.395091 25.0889 0.873304 25.3652C1.35152 25.6415 1.96315 25.4778 2.23944 24.9995L0.507673 23.999ZM24.7606 24.9998C25.0368 25.478 25.6485 25.6417 26.1267 25.3654C26.6049 25.0892 26.7686 24.4775 26.4923 23.9993L24.7606 24.9998ZM20.4999 9.50046C20.4999 13.3665 17.3659 16.5005 13.4999 16.5005V18.5005C18.4705 18.5005 22.4999 14.471 22.4999 9.50046H20.4999ZM13.4999 16.5005C9.63393 16.5005 6.49993 13.3665 6.49993 9.50046H4.49993C4.49993 14.471 8.52936 18.5005 13.4999 18.5005V16.5005ZM6.49993 9.50046C6.49993 5.63446 9.63393 2.50046 13.4999 2.50046V0.500458C8.52936 0.500458 4.49993 4.52989 4.49993 9.50046H6.49993ZM13.4999 2.50046C17.3659 2.50046 20.4999 5.63446 20.4999 9.50046H22.4999C22.4999 4.52989 18.4705 0.500458 13.4999 0.500458V2.50046ZM2.23944 24.9995C3.3811 23.0234 5.02268 21.3826 6.99928 20.2418L5.99954 18.5096C3.71896 19.8258 1.82491 21.719 0.507673 23.999L2.23944 24.9995ZM6.99928 20.2418C8.97589 19.101 11.2177 18.5004 13.4999 18.5005L13.4999 16.5005C10.8668 16.5004 8.28011 17.1933 5.99954 18.5096L6.99928 20.2418ZM13.4999 18.5005C15.7821 18.5005 18.0242 19.1011 20.0008 20.2419L21.0006 18.5097C18.72 17.1934 16.1331 16.5005 13.4999 16.5005L13.4999 18.5005ZM20.0008 20.2419C21.9774 21.3827 23.6189 23.0236 24.7606 24.9998L26.4923 23.9993C25.1751 21.7193 23.2811 19.826 21.0006 18.5097L20.0008 20.2419Z" fill="#2DD6FF"/>
</svg>
